<svg width="173" height="102" viewBox="0 0 173 102" fill="none" xmlns="http://www.w3.org/2000/svg"><path d="M1.005 18.281c4-4.2 1.1-7 5.1-11.1 4-4.1 6.9-1.4 10.9-5.5.22-.231.42-.458.6-.681m-16.5 24.574c1.48-.33 2.99-.84 4.7-2.593 4-4.2 1.1-7 5.1-11.1 4-4.1 6.9-1.4 10.9-5.5 1.852-1.944 2.225-3.588 2.488-5.2M1.105 31.908c3.268-2.219 5.917-.556 9.4-4.127 4-4.2 1.1-7 5.1-11.1 4-4.1 6.9-1.4 10.9-5.5 3.633-3.814 1.575-6.473 4.161-10M1 46.681c1.414-2.986.214-5.43 3.405-8.7 4-4.1 6.9-1.4 10.9-5.5 4-4.2 1.1-7 5.1-11.1 4-4.1 6.9-1.4 10.9-5.5 4-4.2 1.1-7 5.1-11.1 3.092-3.17 5.527-2.275 8.32-3.6m9.151 0c-.356.878-.918 1.8-1.87 2.8-4 4.1-6.9 1.4-10.9 5.5s-1.1 6.9-5.1 11.1c-4 4.1-6.9 1.4-10.9 5.5s-1.1 6.9-5.1 11.1c-4 4.1-6.9 1.4-10.9 5.5s-1.1 6.9-5.1 11.1c-1.027 1.078-1.982 1.695-2.9 2.086m-.001 6.069c2.541-.928 4.84-.35 7.7-3.355 4-4.2 1.1-7 5.1-11.1 4-4.1 6.9-1.4 10.9-5.5 4-4.2 1.1-7 5.1-11.1 4-4.1 6.9-1.4 10.9-5.5 4-4.2 1.1-7 5.1-11.1 4-4.1 6.9-1.4 10.9-5.5 2.767-2.905 2.232-5.14 2.964-7.6m8.337-.078a9.964 9.964 0 0 0-1.5 1.278c-4 4.1-1.1 6.9-5.1 11.1-4 4.1-6.9 1.4-10.9 5.5s-1.1 6.9-5.1 11.1c-4 4.1-6.9 1.4-10.9 5.5s-1.1 6.9-5.1 11.1c-4 4.1-6.9 1.4-10.9 5.5s-1.1 6.9-5.1 11.1c-4 4.1-6.9 1.3-10.9 5.5-.674.708-1.152 1.372-1.5 2.01m3.434 9.89c.59-2.32.232-4.435 2.865-7.2 4-4.1 6.9-1.3 10.9-5.5s1.1-7 5.1-11.1c4-4.1 6.9-1.4 10.9-5.5 4-4.2 1.1-7 5.1-11.1 4-4.1 6.9-1.4 10.9-5.5 4-4.2 1.1-7 5.1-11.1 4-4.1 6.9-1.4 10.9-5.5 4-4.2 1.1-7 5.1-11.1 3.412-3.497 6.024-2.047 9.2-4.09m-70.099 77.69c.359-.755.887-1.546 1.7-2.4 4-4.1 6.9-1.3 10.9-5.5s1.1-7 5.1-11.1c4-4.1 6.9-1.4 10.9-5.5 4-4.2 1.1-7 5.1-11.1 4-4.1 6.9-1.4 10.9-5.5 4-4.2 1.1-7 5.1-11.1 4-4.1 6.9-1.4 10.9-5.5 4-4.2 1.1-7 5.1-11.1 1.595-1.635 3.015-2.188 4.4-2.523" stroke="#FE4142" stroke-miterlimit="10"/><path d="M80.606 1.181h-79.5v79.5h79.5v-79.5z" stroke="#FE4142" stroke-miterlimit="10"/><path d="M172.105 14.181h-158v29h158v-29z" fill="#313131"/><path d="M172.605 43.681h-159v-30h159v30zm-158-1h157v-28h-157v28z" fill="#fff"/><path d="M142.105 43.181h-128v29h128v-29z" fill="#313131"/><path d="M142.605 72.681h-129v-30h129v30zm-128-1h127v-28h-127v28z" fill="#fff"/><path d="M112.105 72.181h-98v29h98v-29z" fill="#313131"/><path d="M112.605 101.681h-99v-30h99v30zm-98-1h97v-28h-97v28z" fill="#fff"/><path d="M30.405 34.881c-.6 0-1.2-.2-1.7-.5s-.9-.7-1.2-1.3c-.3-.5-.4-1.1-.4-1.8v-5.3c0-.6.1-1.2.4-1.7.3-.5.7-.9 1.2-1.2.5-.3 1.1-.5 1.7-.5.6 0 1.2.2 1.7.5s.9.7 1.2 1.2c.3.5.4 1.1.4 1.7v.8s0 .1-.1.1h-1.9s-.1 0-.1-.1v-.8c0-.4-.1-.7-.4-1-.2-.3-.5-.4-.9-.4s-.7.1-.9.4c-.2.3-.3.6-.3 1v5.3c0 .4.1.8.4 1 .2.3.5.4.9.4s.7-.1.9-.4c.2-.3.4-.6.4-1v-.8s0-.1.1-.1h1.9s.1 0 .1.1v.8c0 .6-.2 1.2-.5 1.8-.3.5-.7.9-1.2 1.3-.5.3-1.1.5-1.7.5zm7.501-.2c-.1 0-.1 0 0 0l-.1-11.8s0-.1.1-.1h1.9c.1 0 .1 0 .1.1v4.6h2.5v-4.6s0-.1.1-.1h1.9c.1 0 .1 0 .1.1v11.7c0 .1 0 .1-.1.1h-1.9c-.1 0-.1 0-.1-.1v-5h-2.5v5c0 .1 0 .1-.1.1h-1.9zm10.8 0v-11.8s0-.1.1-.1h3.4c.6 0 1.2.2 1.7.5s.9.7 1.2 1.2c.3.5.5 1.1.5 1.7 0 .4-.1.8-.2 1.1-.1.3-.3.6-.4.9-.2.2-.3.4-.5.5.6.7.9 1.5.9 2.4v3.5c0 .1 0 .1-.1.1h-1.9s-.1 0-.1-.1v-3.5c0-.4-.1-.8-.4-1.1-.3-.3-.6-.5-1.1-.5h-1.1v5c0 .1 0 .1-.1.1h-1.9v.1zm2-7.1h1.5c.4 0 .7-.1.9-.4.2-.3.4-.6.4-1s-.1-.7-.4-.9c-.3-.3-.6-.4-.9-.4h-1.5v2.7zm9.999 7.1v-4.9l-2.3-6.9s0-.1.1-.1h1.9c.1 0 .1 0 .1.1l1.3 4.6 1.3-4.6s0-.1.1-.1h1.9s.1 0 .1.1l-2.5 6.8v4.9s0 .1-.1.1h-1.9zm10.6.2c-.6 0-1.2-.2-1.7-.5s-.9-.7-1.2-1.2c-.3-.5-.4-1.1-.4-1.7v-.8c0-.1 0-.1.1-.1h1.9s.1 0 .1.1v.8c0 .4.1.7.4 1 .2.3.5.4.9.4s.7-.1.9-.4c.2-.3.4-.6.4-1s-.3-.8-.8-1.1c-.2-.1-.5-.3-.9-.5s-.7-.4-1.1-.6c-.6-.4-1.1-.8-1.4-1.4-.3-.6-.4-1.2-.4-1.9 0-.6.2-1.2.5-1.7s.7-.9 1.2-1.2c.5-.3 1.1-.4 1.6-.4.6 0 1.2.2 1.6.5.5.3.9.7 1.2 1.2.3.5.5 1.1.5 1.7v1.4s0 .1-.1.1h-1.9s-.1 0-.1-.1v-1.4c0-.4-.1-.7-.4-1-.3-.3-.5-.4-.9-.4s-.7.1-.9.4c-.2.3-.4.6-.4.9 0 .4.1.7.2.9.1.2.4.5.9.7.1 0 .2.1.3.2.2.1.4.2.5.3.2.1.4.2.5.3.2.1.3.1.3.2.6.3 1 .7 1.3 1.2.3.5.5 1 .5 1.7 0 .6-.2 1.2-.5 1.8-.3.5-.7.9-1.2 1.2-.3.2-.8.4-1.5.4zm7.401-.2l-.1-11.8s0-.1.1-.1h5.5s.1 0 .1.1v1.9s0 .1-.1.1h-3.5v2.7h3.5s.1 0 .1.1v1.9s0 .1-.1.1h-3.5v3h3.5s.1 0 .1.1v1.9s0 .1-.1.1h-5.5v-.1zm12.7.2c-.6 0-1.2-.2-1.7-.5s-.9-.7-1.2-1.2c-.3-.5-.4-1.1-.4-1.7v-.8c0-.1 0-.1.1-.1h1.9s.1 0 .1.1v.8c0 .4.1.7.4 1 .2.3.5.4.9.4s.7-.1.9-.4c.2-.3.4-.6.4-1s-.3-.8-.8-1.1c-.2-.1-.5-.3-.8-.5-.4-.2-.7-.4-1.1-.6-.6-.4-1.1-.8-1.4-1.4-.3-.6-.4-1.2-.4-1.9 0-.6.2-1.2.5-1.7s.7-.9 1.2-1.2c.5-.3 1.1-.4 1.6-.4.6 0 1.2.2 1.6.5.5.3.9.7 1.2 1.2.3.5.5 1.1.5 1.7v1.4s0 .1-.1.1h-1.9s-.1 0-.1-.1v-1.4c0-.4-.1-.7-.4-1-.2-.2-.5-.4-.9-.4s-.7.1-.9.4c-.2.3-.4.6-.4.9 0 .4.1.7.2.9.2.2.4.5.9.7.1 0 .2.1.3.2.2.1.4.2.5.3.2.1.4.2.5.3.2.1.3.1.3.2.6.3 1 .7 1.3 1.2.3.5.5 1 .5 1.7 0 .6-.2 1.2-.5 1.8-.3.5-.7.9-1.2 1.2-.4.2-1 .4-1.6.4zm-63.001 29c-.6 0-1.2-.2-1.7-.5s-.9-.7-1.2-1.3c-.3-.5-.4-1.1-.4-1.8v-5.3c0-.6.1-1.2.4-1.7.3-.5.7-.9 1.2-1.2.5-.3 1.1-.5 1.7-.5.6 0 1.2.2 1.7.5s.9.7 1.2 1.2c.3.5.4 1.1.4 1.7v.8s0 .1-.1.1h-1.9s-.1 0-.1-.1v-.8c0-.4-.1-.7-.4-1-.2-.3-.5-.4-.9-.4s-.7.1-.9.4c-.2.3-.3.6-.3 1v5.3c0 .4.1.8.4 1 .2.3.5.4.9.4s.7-.1.9-.4c.2-.3.4-.6.4-1v-.8s0-.1.1-.1h1.9s.1 0 .1.1v.8c0 .6-.2 1.2-.5 1.8-.3.5-.7.9-1.2 1.3-.5.3-1.1.5-1.7.5zm7.501-.2c-.1 0-.1 0 0 0v-11.8s0-.1.1-.1h3.4c.6 0 1.2.2 1.7.5s.9.7 1.2 1.2c.3.5.5 1.1.5 1.7 0 .4-.1.8-.2 1.1-.1.3-.3.6-.4.8-.2.2-.3.4-.5.5.6.7.9 1.5.9 2.4v3.5c0 .1 0 .1-.1.1h-1.9s-.1 0-.1-.1v-3.5c0-.4-.1-.8-.4-1.1-.3-.3-.6-.5-1.1-.5h-1.1v5c0 .1 0 .1-.1.1h-1.9v.2zm2-7.1h1.5c.4 0 .7-.1.9-.4.2-.3.4-.6.4-1s-.1-.7-.4-.9c-.3-.3-.6-.4-.9-.4h-1.5v2.7zm9 7.1c-.1 0-.1 0 0 0l-.1-11.8s0-.1.1-.1h5.5s.1 0 .1.1v1.9s0 .1-.1.1h-3.5v2.7h3.5s.1 0 .1.1v1.9s0 .1-.1.1h-3.5v3h3.5s.1 0 .1.1v1.9s0 .1-.1.1h-5.5v-.1zm9.099-.1l2.1-11.7s0-.1.1-.1h2.5s.1 0 .1.1l2 11.7c0 .1 0 .1-.1.1h-1.9s-.1 0-.1-.1l-.2-1.2h-2.3l-.2 1.2c0 .1 0 .1-.1.1l-1.9-.1c0 .1 0 .1 0 0zm2.6-3h1.6l-.7-4.8-.1-.6-.1.6-.7 4.8zm8.9 3.1l-.1-9.8h-2.2c-.1 0-.1 0-.1-.1v-1.9s0-.1.1-.1h6.5c.1 0 .1 0 .1.1v1.9c0 .1 0 .1-.1.1h-2.2v9.7c0 .1 0 .1-.1.1h-1.9zm8 0s-.1 0 0 0l-.1-11.8s0-.1.1-.1h1.9s.1 0 .1.1v11.7c0 .1 0 .1-.1.1h-1.9zm8.201 0s-.1 0 0 0l-2.4-11.8s0-.1.1-.1h1.9s.1 0 .1.1l1.4 7.8 1.4-7.8s0-.1.1-.1h1.9c.1 0 .1 0 .1.1l-2.3 11.7c0 .1 0 .1-.1.1h-2.2zm8.299 0l-.1-11.8s0-.1.1-.1h5.5s.1 0 .1.1v1.9s0 .1-.1.1h-3.5v2.7h3.5s.1 0 .1.1v1.9s0 .1-.1.1h-3.5v3h3.5s.1 0 .1.1v1.9s0 .1-.1.1h-5.5v-.1zm-63.8 28.2c-.6 0-1.2-.2-1.7-.5s-.9-.7-1.2-1.2c-.3-.5-.4-1.1-.4-1.7v-.8c0-.1 0-.1.1-.1h1.9s.1 0 .1.1v.8c0 .4.1.7.4 1 .2.3.5.4.9.4s.7-.1.9-.4c.2-.3.4-.6.4-1s-.3-.8-.8-1.1c-.2-.1-.5-.3-.8-.5-.4-.2-.7-.4-1.1-.6-.6-.4-1.1-.8-1.4-1.4-.3-.6-.4-1.2-.4-1.9 0-.6.2-1.2.5-1.7s.7-.9 1.2-1.2c.5-.3 1.1-.4 1.6-.4.6 0 1.2.2 1.6.5.5.3.9.7 1.2 1.2.3.5.5 1.1.5 1.7v1.4s0 .1-.1.1h-1.9s-.1 0-.1-.1v-1.4c0-.4-.1-.7-.4-1-.3-.3-.7-.4-1-.4-.4 0-.7.1-.9.4-.2.3-.4.6-.4.9 0 .4.1.7.2.9.2.2.4.5.9.7.1 0 .2.1.3.2.2.1.4.2.5.3.2.1.4.2.5.3.2.1.3.1.3.2.6.3 1 .7 1.3 1.2.3.5.5 1 .5 1.7 0 .6-.2 1.2-.5 1.8-.3.5-.7.9-1.2 1.2-.4.2-.9.4-1.5.4zm8.901-.2s-.1 0 0 0l-.1-9.8h-2.2c-.1 0-.1 0-.1-.1v-1.9s0-.1.1-.1h6.5c.1 0 .1 0 .1.1v1.9c0 .1 0 .1-.1.1h-2.2v9.7c0 .1 0 .1-.1.1h-1.9zm11 .2c-.6 0-1.2-.2-1.7-.5s-.9-.7-1.2-1.3c-.3-.5-.4-1.1-.4-1.7v-8.5s0-.1.1-.1h1.9s.1 0 .1.1v8.5c0 .4.1.7.4 1 .2.3.5.4.9.4s.7-.1.9-.4c.2-.3.4-.6.4-1v-8.5s0-.1.1-.1h1.9s.1 0 .1.1v8.5c0 .6-.2 1.2-.5 1.7s-.7.9-1.2 1.2c-.6.4-1.1.6-1.8.6zm7.6-.2s-.1 0 0 0l-.1-11.8s0-.1.1-.1h3.2c.6 0 1.2.1 1.7.4.5.3.9.7 1.2 1.2.3.5.5 1.1.5 1.7v4.9c0 .7-.2 1.3-.5 1.8s-.7 1-1.3 1.3c-.5.3-1.1.5-1.8.5l-3 .1zm2-2.1h1.1c.4 0 .8-.1 1.1-.4.3-.3.4-.6.4-1.1v-4.9c0-.4-.1-.7-.4-.9-.3-.3-.6-.4-.9-.4h-1.2l-.1 7.7zm8.899 2.1c-.1 0-.1 0 0 0l-.1-11.8s0-.1.1-.1h1.9s.1 0 .1.1v11.7c0 .1 0 .1-.1.1h-1.9zm9.4.2c-.6 0-1.2-.2-1.7-.5s-.9-.7-1.2-1.2c-.3-.5-.5-1.1-.5-1.7v-5.4c0-.6.1-1.2.4-1.7.3-.5.7-.9 1.2-1.2.5-.3 1.1-.5 1.7-.5.6 0 1.2.2 1.7.5s.9.7 1.2 1.2c.3.5.5 1.1.5 1.7v5.4c0 .6-.2 1.2-.5 1.7s-.7.9-1.2 1.2c-.4.3-1 .5-1.6.5zm0-2.1c.3 0 .6-.1.9-.4.3-.3.4-.6.4-1v-5.4c0-.4-.1-.7-.4-1-.3-.1-.6-.3-.9-.3-.4 0-.7.1-.9.4-.2.2-.4.6-.4 1v5.4c0 .4.1.7.4 1 .2.2.5.3.9.3z" fill="#FF4142"/></svg>